# xmcd
#
# Track frame offsets:
#	150
#	15491
#	31528
#	49420
#	63299
#	78000
#	95544
#	112432
#	128430
#	145315
#	161241
#	176418
#	193268
#	210459
#	225590
#	243212
#	260876
#	278991
#	293913
#	306530
#	322064
#
# Disc length: 4489 seconds
#
# Revision: 1
# Processed by: cddbd v1.5.2PL0 Copyright (c) Steve Scherf et al.
# Submitted via: audiograbber 1.83.01
#
DISCID=35118715
DTITLE=Various Artist - CDX Volume 655 (November 6, 2017)
DYEAR=2017
DGENRE=Country
TTITLE0=Jon Pardi - She Ain't In It
TTITLE1=Shania Twain - We Got Something They Don't
TTITLE2=Band Steele - 195
TTITLE3=Terry McBride - Boots Off
TTITLE4=AC Jones - Buses And Trains
TTITLE5=David Lee Murphy and Kenny Chesney - Everything's Gonna Be Alright
TTITLE6=Tim Elliot - I Got You
TTITLE7=Vince Hatfield - Rattlesnakes And Tornadoes
TTITLE8=Blake Shelton - Christmas Eve
TTITLE9=Brett Eldredge - Glow
TTITLE10=Luke Bryan - O Holy Night
TTITLE11=CB30 - The Christmas Song 
TTITLE12=Vince Vance And The Valiants - All I Want For Christmas Is You
TTITLE13=Shane Owens - Christmas In Dixie 
TTITLE14=Joseph James - Christmas In My Hometown
TTITLE15=Jeff Crosby - Christmas In The Palms 
TTITLE16=Vince Vance And The Valiants - Christmas State Of Mind
TTITLE17=Bubba T (featuring Natalie Rose) - Frosty The Snowman
TTITLE18=Lucas Hoge - Ho Ho Home For The Holidays
TTITLE19=Heidi Raye - I'm Gonna Wish You Merry Christmas 
TTITLE20=Re Mattei - Santa's Gone Country
EXTD=
EXTT0=
EXTT1=
EXTT2=
EXTT3=
EXTT4=
EXTT5=
EXTT6=
EXTT7=
EXTT8=
EXTT9=
EXTT10=
EXTT11=
EXTT12=
EXTT13=
EXTT14=
EXTT15=
EXTT16=
EXTT17=
EXTT18=
EXTT19=
EXTT20=
PLAYORDER=
